<svg xmlns="http://www.w3.org/2000/svg" viewBox="0 0 580 580">
   <title>BlueSky icon</title>
   <path d="M125.722 69.035c66.496 49.92 138.02 151.14 164.28 205.46 26.261-54.316 97.781-155.54 164.279-205.46C502.26 33.014 580 5.143 580 93.83c0 17.712-10.155 148.79-16.11 170.07-20.704 73.984-96.144 92.854-163.25 81.433 117.3 19.964 147.14 86.092 82.697 152.22-122.39 125.59-175.91-31.511-189.63-71.766-2.514-7.38-3.69-10.832-3.707-7.896-.017-2.936-1.193.516-3.707 7.896-13.714 40.255-67.233 197.36-189.63 71.766-64.443-66.128-34.604-132.26 82.697-152.22-67.108 11.42-142.55-7.45-163.25-81.433C10.154 242.618 0 111.54 0 93.83 0 5.143 77.742 33.014 125.72 69.035z"/>
</svg>