<?xml version="1.0" encoding="UTF-8" standalone="no"?>
<svg
   viewBox="0 0 580 580"
   version="1.1"
   id="svg1"
   sodipodi:docname="bluesky.svg"
   width="580"
   height="580"
   inkscape:version="1.3.2 (091e20e, 2023-11-25)"
   xmlns:inkscape="http://www.inkscape.org/namespaces/inkscape"
   xmlns:sodipodi="http://sodipodi.sourceforge.net/DTD/sodipodi-0.dtd"
   xmlns="http://www.w3.org/2000/svg"
   xmlns:svg="http://www.w3.org/2000/svg">
  <defs
     id="defs1" />
  <sodipodi:namedview
     id="namedview1"
     pagecolor="#ffffff"
     bordercolor="#000000"
     borderopacity="0.25"
     inkscape:showpageshadow="2"
     inkscape:pageopacity="0.0"
     inkscape:pagecheckerboard="0"
     inkscape:deskcolor="#d1d1d1"
     inkscape:zoom="0.31486264"
     inkscape:cx="146.09545"
     inkscape:cy="298.54288"
     inkscape:window-width="1280"
     inkscape:window-height="449"
     inkscape:window-x="0"
     inkscape:window-y="25"
     inkscape:window-maximized="0"
     inkscape:current-layer="svg1" />
  <path
     d="M 125.72235,69.034771 C 192.21801,118.95577 263.74164,220.17477 290.0015,274.49477 316.26336,220.17877 387.78299,118.95477 454.28065,69.034771 502.2604,33.013771 580,5.1427717 580,93.829771 c 0,17.711999 -10.15495,148.789999 -16.11092,170.069999 -20.70289,73.984 -96.1435,92.854 -163.24915,81.433 117.29939,19.964 147.13924,86.092 82.69657,152.22 -122.38937,125.59 -175.90909,-31.511 -189.62902,-71.766 -2.51399,-7.38 -3.68998,-10.832 -3.70798,-7.896 -0.017,-2.936 -1.19299,0.516 -3.70698,7.896 -13.71393,40.255 -67.23265,197.36 -189.62902,71.766 -64.443667,-66.128 -34.604821,-132.26 82.69657,-152.22 -67.10765,11.421 -142.54926,-7.45 -163.249153,-81.433 C 10.152947,242.61777 0,111.53977 0,93.829771 c 0,-88.6869993 77.741598,-60.816 125.71935,-24.795 z"
     id="path1"
     style="stroke-width:0.999997" />
</svg>
