<svg xmlns="http://www.w3.org/2000/svg" width="50" height="50" viewBox="0 0 2 2"><path d="m1.837.042-.142.235a.83.83 0 0 0-.418 0L1.14.045C.916.464.98.73 1.15.861v.001a1.692 1.692 0 0 0-.08.054C.355.346-.287.988.134 1.56h.004a.55.55 0 0 0 .257.213c.133.05.27.036.405.017.135-.02.267-.043.393-.034a.508.508 0 0 1 .368.167c.078.086.19-.007.096-.098a.683.683 0 0 0-.444-.203c-.15-.01-.293.019-.422.037-.13.019-.245.027-.344-.01a.372.372 0 0 1-.134-.089h1.464c.07-.244.076-.503-.002-.666.236-.123.331-.414.062-.853z" style="stroke-width:.0650453"/></svg>