<svg xmlns="http://www.w3.org/2000/svg" xml:space="preserve" viewBox="0 0 45.973 45.973">
   <g>
      <g>
         <path d="M44.752 20.832 25.935 1.268A4.09 4.09 0 0 0 22.989 0a4.09 4.09 0 0 0-2.947 1.268L1.22 20.832a4.43 4.43 0 0 0-.903 4.704c.646 1.618 2.165 2.658 3.85 2.658h2.404v13.993c0 2.093 1.607 3.786 3.621 3.786h3.204v-12.65a1.7 1.7 0 0 1 1.692-1.716h6.223c.926 0 1.673.753 1.673 1.716v12.649h12.799c2.013 0 3.612-1.693 3.612-3.786V28.194h2.411c1.685 0 3.204-1.04 3.85-2.658a4.431 4.431 0 0 0-.904-4.704z"/>
      </g>
   </g>
</svg>