<svg xmlns="http://www.w3.org/2000/svg" xml:space="preserve" viewBox="0 0 93.69 21.144">
  <g style="fill:#000;fill-opacity:0">
    <path d="M57.755 173.793c-2.207 0-3.972.465-5.293 1.394-1.322.915-1.983 2.12-1.983 3.617 0 .153.008.302.021.447v.004a4.289 4.289 0 0 0 .056.389l.005.029a3.916 3.916 0 0 0 .093.376l.004.013a3.6 3.6 0 0 0 .504 1.032l.008.012c.075.106.157.208.245.308l.008.01c.087.098.179.192.277.284l2.65 2.65H50.5c-.333 0-.5.16-.5.48 0 .121.008.24.02.358l.005.063a3.437 3.437 0 0 0 .158.703l.002.006.007.023a3.408 3.408 0 0 0 .155.37c.053.107.11.213.174.316l.013.02c.064.103.134.203.21.302l.016.022c.087.11.181.219.283.325l.003.004c.093.098.19.194.296.288l3.992 3.992c.29.327.646.634 1.07.92 1.351.886 3.239 1.329 5.664 1.329 2.426 0 4.372-.465 5.839-1.395 1.466-.93 2.2-2.142 2.2-3.638 0-1.313-.392-2.335-1.176-3.067l-2.596-2.597h2.727c.16 0 .282-.043.37-.13a.436.436 0 0 0 .152-.349c0-.785-.366-1.54-1.094-2.263h.002l-4.406-4.405v.002a7.326 7.326 0 0 0-.95-.784c-1.365-.973-3.159-1.46-5.38-1.46zm6.986 3.05.021.034-.021-.034zm.275.556.021.057-.021-.057zm.144.575zm-8.685.309a.532.532 0 0 1 0 0zm-.06.662zm5.746 1.193zm-10.066 1.895.035.025-.035-.025zm.225.157.033.02a3.637 3.637 0 0 1-.033-.02zm.23.142.047.028-.047-.028zm.395.213c.092.046.189.089.286.131-.097-.043-.195-.085-.286-.13zm.63.273zm.609.21c.084.027.168.053.255.078-.087-.025-.17-.051-.255-.077zm.683.187c.083.02.164.041.25.06-.086-.018-.167-.04-.25-.06zm.746.157c.083.015.163.032.248.046-.085-.014-.165-.03-.248-.046zm3.217.498a3.771 3.771 0 0 0 0 0zm.93 1.005zm-8.139 2.994.07.054-.07-.054z" style="font-weight:900;font-size:21.7847px;font-family:Sans;-inkscape-font-specification:&quot;Sans, Heavy&quot;;letter-spacing:-.529167px;fill:none;fill-opacity:1;stroke:#000;stroke-width:1.05833;stroke-linejoin:bevel;stroke-dasharray:none;stroke-opacity:1" transform="translate(-49.471 -173.264)"/>
    <path d="M57.755 173.793c-2.207 0-3.972.465-5.294 1.394-1.321.915-1.982 2.12-1.982 3.617 0 1.182.408 2.15 1.221 2.903l2.65 2.651H50.5c-.333 0-.5.16-.5.48 0 1.069.447 2.002 1.341 2.799h.001l3.992 3.992c.29.327.646.634 1.07.92 1.35.886 3.239 1.33 5.664 1.33s4.372-.466 5.838-1.395c1.467-.93 2.2-2.142 2.2-3.638 0-1.313-.391-2.336-1.175-3.067l-2.597-2.597h2.727c.16 0 .283-.043.37-.13a.436.436 0 0 0 .153-.35c0-.785-.366-1.539-1.095-2.262h.002l-4.405-4.406v.002a7.327 7.327 0 0 0-.95-.784c-1.365-.973-3.159-1.459-5.38-1.459zm6.986 3.05.02.034-.02-.034zm.163.295c.006.01.01.021.015.032l-.015-.032zm.113.264.018.049c-.005-.017-.012-.033-.018-.05zm.143.572zm-8.688.311a.534.534 0 0 1 0 0zm-4.378 3.747.038.028-.038-.028zm.229.159.027.018-.027-.018zm.24.149.028.016-.028-.016zm.39.209c.088.043.181.084.274.126-.093-.041-.186-.083-.275-.126zm.622.27zm.609.21c.084.026.167.052.254.077-.087-.025-.17-.051-.254-.077zm.689.187c.08.02.159.04.242.059-.083-.019-.162-.04-.242-.059zm.736.155c.085.016.167.033.254.047-.087-.014-.169-.031-.254-.047zm3.22.499a3.771 3.771 0 0 0 0 0zm.898.38zm.152.253a.442.442 0 0 0 0 0zm-.021.243zm-.776.395zm-7.462 2.727.073.057-.073-.057z" style="font-weight:900;font-size:21.7847px;font-family:Sans;-inkscape-font-specification:&quot;Sans, Heavy&quot;;letter-spacing:-.529167px;fill:#d92d78;fill-opacity:1;stroke:none;stroke-width:.264054;stroke-dasharray:none;stroke-opacity:1" transform="translate(-49.471 -173.264)"/>
    <path d="M57.755 173.793c-2.207 0-3.972.465-5.294 1.394-1.321.915-1.982 2.12-1.982 3.617 0 2.657 2.055 4.233 6.165 4.726 1.293.146 2.157.298 2.593.458.435.145.653.349.653.61 0 .421-.69.632-2.07.632-1.001 0-1.706-.196-2.113-.589-.189-.188-.435-.283-.74-.283H50.5c-.334 0-.501.16-.501.48 0 1.307.668 2.41 2.004 3.311 1.35.886 3.238 1.329 5.664 1.329 2.425 0 4.371-.465 5.838-1.394 1.467-.93 2.2-2.143 2.2-3.638 0-1.496-.508-2.615-1.524-3.355-1.003-.755-2.694-1.271-5.076-1.547-1.133-.13-1.888-.254-2.266-.37-.377-.131-.566-.305-.566-.523 0-.407.486-.61 1.46-.61.696 0 1.22.16 1.568.48a.961.961 0 0 0 .675.26h4.684c.16 0 .283-.043.37-.13a.436.436 0 0 0 .153-.349c0-1.074-.683-2.091-2.048-3.05-1.365-.973-3.159-1.459-5.38-1.459z" style="font-weight:900;font-size:21.7847px;font-family:Sans;-inkscape-font-specification:&quot;Sans, Heavy&quot;;letter-spacing:-.529167px;fill:#e5e5e5;fill-opacity:1;stroke:none;stroke-width:.264054;stroke-dasharray:none;stroke-opacity:1" transform="translate(-49.471 -173.264)"/>
  </g>
  <g style="fill:#000;fill-opacity:0">
    <path d="M71.875 174.01c-.523 0-.85.24-.98.72l-4.75 13.92a.665.665 0 0 0-.021.197c0 .085.042.178.126.278l.004.005.002.002 4.398 4.398a.52.52 0 0 0 .348.13h4.118c.464 0 .791-.246.98-.74l.545-1.525h4.154l2.014 2.014v-.004c.177.168.4.255.672.255h4.118c.13 0 .239-.043.326-.13.102-.102.153-.196.153-.283a.658.658 0 0 0-.022-.197l-4.75-13.92a.984.984 0 0 0-.28-.484h.005l-4.35-4.35-.017-.016-.038-.038v.005a.832.832 0 0 0-.295-.172l-.011-.004a1.09 1.09 0 0 0-.167-.04l-.02-.004a1.496 1.496 0 0 0-.206-.015zm-5.625 15.115h-.001l.002.002-.001-.002zm12.541-14.681zm-.609 14.249zm.118.185zm.102.116zm.117.099zm.125.073zm.135.051zm.15.032zm-8.275 3.397.021.022-.021.064z" style="font-weight:900;font-size:21.7847px;font-family:Sans;-inkscape-font-specification:&quot;Sans, Heavy&quot;;letter-spacing:-.529167px;fill:none;fill-opacity:1;stroke:#000;stroke-width:1.05833;stroke-linejoin:bevel;stroke-dasharray:none;stroke-opacity:1" transform="translate(-49.471 -173.264)"/>
    <path d="M71.875 174.01c-.523 0-.85.24-.98.72l-4.75 13.92a.665.665 0 0 0-.02.196c0 .088.042.182.13.284l4.398 4.4a.52.52 0 0 0 .35.13h4.116c.465 0 .792-.247.98-.74l.545-1.525H80.8l2.014 2.013v-.004c.177.169.4.256.672.256h4.117c.131 0 .24-.043.327-.13.102-.102.152-.197.152-.284a.658.658 0 0 0-.021-.196l-4.75-13.92a.984.984 0 0 0-.28-.484h.005l-4.35-4.35-.017-.017-.038-.038v.005c-.17-.155-.402-.235-.7-.235zm6.916.434c.013.022.025.045.037.069l-.037-.07zm-3.888 3.772 1.547 4.53h-.001zm2.657 8.778.545 1.525a1.701 1.701 0 0 1 0 0zm.932 2.08zm-12.243.05.005.005-.004-.005zm4.404 3.522.022.022-.022.064z" style="font-weight:900;font-size:21.7847px;font-family:Sans;-inkscape-font-specification:&quot;Sans, Heavy&quot;;letter-spacing:-.529167px;fill:#d92d78;fill-opacity:1;stroke:none;stroke-width:.264054;stroke-dasharray:none;stroke-opacity:1" transform="translate(-49.471 -173.264)"/>
    <path d="M71.875 174.01c-.523 0-.85.24-.98.72l-4.75 13.92a.665.665 0 0 0-.021.196c0 .087.043.182.13.284a.52.52 0 0 0 .349.13h4.117c.465 0 .791-.247.98-.74l.545-1.526h5.315l.545 1.525c.189.494.515.74.98.74h4.118c.13 0 .24-.042.326-.13.102-.101.153-.196.153-.283a.658.658 0 0 0-.022-.196l-4.749-13.92c-.13-.48-.457-.72-.98-.72zm3.028 4.205 1.546 4.531h-3.093z" style="font-weight:900;font-size:21.7847px;font-family:Sans;-inkscape-font-specification:&quot;Sans, Heavy&quot;;letter-spacing:-.529167px;fill:#e5e5e5;fill-opacity:1;stroke:none;stroke-width:.264054;stroke-dasharray:none;stroke-opacity:1" transform="translate(-49.471 -173.264)"/>
  </g>
  <g style="fill:#000;fill-opacity:0">
    <path d="M86.137 174.01a.566.566 0 0 0-.414.175.565.565 0 0 0-.174.414v14.073c0 .16.058.298.174.414.016.015.032.027.049.04-.016-.012-.031-.023-.046-.037l4.397 4.398a.565.565 0 0 0 .414.174h4.706c.16 0 .298-.058.414-.174a.565.565 0 0 0 .174-.414v-3.619l3.959 3.96v-.005c.175.166.408.252.703.252h4.945c.13 0 .24-.043.327-.13.101-.102.153-.204.153-.306a.542.542 0 0 0-.044-.24l-2.68-5.01c1.525-.886 2.288-2.316 2.288-4.291 0-1.4-.431-2.546-1.29-3.44h.002l-.038-.039-.02-.02-4.347-4.346v.003a5 5 0 0 0-.45-.415c-1.162-.944-2.738-1.416-4.728-1.416zm14.211 2.542.009.013-.009-.013zm.222.39.013.028-.013-.027zm.325.86.006.019-.006-.02zm-6.74.26zm6.839.188.009.056a33.438 33.438 0 0 0-.01-.056zm.064.491.006.078-.006-.078zm.023.542zm-.016.46zm-6.17.324zm6.14.016zm-.047.318zm-.063.311zm-.08.306c-.016.051-.034.102-.051.152.017-.05.035-.1.05-.152zm-.094.28zm-.29.624-.08.14.08-.14zm-.154.252zm-.162.228zm-.18.222zm-.202.214zm-.205.19a4.6 4.6 0 0 1-.763.547 5.056 5.056 0 0 0 .763-.546zm-8.127 1.374h1.83-1.83zm-.174 4.684zm-5.236.163c.038.007.076.011.116.011h4.706-4.706a.593.593 0 0 1-.116-.01z" style="font-weight:900;font-size:21.7847px;font-family:Sans;-inkscape-font-specification:&quot;Sans, Heavy&quot;;letter-spacing:-.529167px;fill:none;fill-opacity:1;stroke:#000;stroke-width:1.05833;stroke-linejoin:bevel;stroke-dasharray:none;stroke-opacity:1" transform="translate(-49.471 -173.264)"/>
    <path d="M86.137 174.01a.566.566 0 0 0-.414.175.565.565 0 0 0-.174.414v14.073c0 .16.058.298.174.414a.64.64 0 0 0 .003.003l4.397 4.397a.565.565 0 0 0 .414.175h4.706c.16 0 .297-.058.414-.175a.565.565 0 0 0 .174-.413v-3.619l3.959 3.96v-.005c.175.166.408.252.703.252h4.945c.13 0 .24-.043.327-.13.101-.102.152-.204.152-.306a.542.542 0 0 0-.043-.24l-2.68-5.01c1.525-.886 2.287-2.316 2.287-4.291 0-1.4-.43-2.546-1.29-3.44h.003l-.038-.039-.02-.02-4.347-4.346v.003a5 5 0 0 0-.45-.415c-1.162-.944-2.738-1.416-4.727-1.416zm14.433 2.933.013.027-.013-.027zm.322.847.01.037-.01-.037zm-6.738.273zm6.839.183.012.067-.012-.067zm.065.495.006.084-.006-.084zm.024.542zm-.036.715zm-6.151.07zm-.148.135a.833.833 0 0 0 0 0zm5.897 1.36zm-.643 1.022a4.479 4.479 0 0 1 0 0zm-.67.632a5.054 5.054 0 0 0 0 0zm-7.9 1.185h1.83-1.83Zm10.053 4.216zm-10.064.17a.57.57 0 0 1-.163.298.567.567 0 0 1-.415.174h-4.705 4.706c.16 0 .298-.058.414-.174a.57.57 0 0 0 .163-.298zm10.088.113zm-6.174.053zm.204.17zm5.827.005v.001a.443.443 0 0 1-.327.13h-4.945 4.945c.13 0 .24-.043.327-.13z" style="font-weight:900;font-size:21.7847px;font-family:Sans;-inkscape-font-specification:&quot;Sans, Heavy&quot;;letter-spacing:-.529167px;fill:#d92d78;fill-opacity:1;stroke:none;stroke-width:.264054;stroke-dasharray:none;stroke-opacity:1" transform="translate(-49.471 -173.264)"/>
    <path d="M86.137 174.01a.566.566 0 0 0-.414.175.565.565 0 0 0-.174.414v14.073c0 .16.058.297.174.414a.565.565 0 0 0 .414.174h4.706c.16 0 .297-.058.414-.174a.565.565 0 0 0 .174-.414v-4.27h1.83l1.917 4.314c.174.363.48.544.915.544h4.945c.13 0 .24-.043.326-.13.102-.102.153-.204.153-.306a.542.542 0 0 0-.043-.24l-2.68-5.01c1.525-.886 2.287-2.316 2.287-4.291 0-1.627-.58-2.913-1.742-3.857-1.162-.944-2.738-1.415-4.728-1.415zm5.294 4.052h2.723c.334 0 .58.124.74.371.175.232.262.508.262.828 0 .32-.087.588-.261.806-.175.203-.421.305-.74.305H91.43z" style="font-weight:900;font-size:21.7847px;font-family:Sans;-inkscape-font-specification:&quot;Sans, Heavy&quot;;letter-spacing:-.529167px;fill:#e5e5e5;fill-opacity:1;stroke:none;stroke-width:.264054;stroke-dasharray:none;stroke-opacity:1" transform="translate(-49.471 -173.264)"/>
  </g>
  <g style="fill:#000;fill-opacity:0">
    <path d="M64.965.217h-6.056c-.523 0-.85.24-.98.72l-4.75 13.92a.665.665 0 0 0-.021.197c0 .085.042.178.126.278l.004.005 4.4 4.4a.52.52 0 0 0 .348.13h4.118c.464 0 .791-.247.98-.74l.545-1.525h4.154l2.014 2.014v-.005c.177.169.4.256.672.256h4.117c.131 0 .24-.043.327-.13.102-.102.153-.197.153-.284a.658.658 0 0 0-.022-.196l-4.75-13.92a.984.984 0 0 0-.28-.484h.006L65.719.503c-.017-.018-.036-.034-.055-.05a.797.797 0 0 0-.13-.096l-.01-.005a.875.875 0 0 0-.14-.065l-.009-.004a1.057 1.057 0 0 0-.157-.041c-.019-.003-.036-.008-.055-.01a1.462 1.462 0 0 0-.148-.011h-.005c-.015-.002-.03-.004-.045-.004zm.7.236.045.04-.046-.045zm.16.198zm-8.137 18.202.022.022-.022.064z" style="font-weight:900;font-size:21.7847px;font-family:Sans;-inkscape-font-specification:&quot;Sans, Heavy&quot;;letter-spacing:-.529167px;fill:none;fill-opacity:1;stroke:#000;stroke-width:1.05833;stroke-linejoin:bevel;stroke-dasharray:none;stroke-opacity:1" transform="translate(.529 .529)"/>
    <path d="M58.909.218c-.523 0-.85.24-.98.718l-4.75 13.921a.665.665 0 0 0-.021.196c0 .086.042.179.126.278h-.001l.005.005 4.4 4.4a.52.52 0 0 0 .349.13h4.117c.464 0 .791-.246.98-.74l.545-1.525h4.154l2.014 2.014v-.004c.178.169.4.256.672.256h4.118c.13 0 .24-.044.326-.13.102-.102.153-.197.153-.284a.658.658 0 0 0-.022-.196l-4.75-13.92a.984.984 0 0 0-.28-.485h.006L65.718.502 65.717.5 65.71.494l-.046-.046v.005c-.171-.155-.403-.236-.7-.236Zm6.916.431c.013.023.025.047.037.072-.012-.025-.024-.05-.037-.072zm-7.09 14.077zm11.96.131a.658.658 0 0 0 0 0zm-13.007 3.996.022.022-.022.064z" style="font-weight:900;font-size:21.7847px;font-family:Sans;-inkscape-font-specification:&quot;Sans, Heavy&quot;;letter-spacing:-.529167px;fill:#d92d78;fill-opacity:1;stroke:none;stroke-width:.264054;stroke-dasharray:none;stroke-opacity:1" transform="translate(.529 .529)"/>
    <path d="M58.909.218c-.523 0-.85.24-.98.718l-4.75 13.92a.665.665 0 0 0-.021.197c0 .087.043.182.13.284a.52.52 0 0 0 .349.13h4.117c.465 0 .791-.247.98-.74l.545-1.526h5.315l.545 1.525c.189.494.515.74.98.74h4.118c.13 0 .24-.042.326-.13.102-.101.153-.196.153-.283a.658.658 0 0 0-.022-.196L65.945.937c-.13-.48-.457-.72-.98-.72Zm3.027 4.204 1.547 4.531H60.39z" style="font-weight:900;font-size:21.7847px;font-family:Sans;-inkscape-font-specification:&quot;Sans, Heavy&quot;;letter-spacing:-.529167px;fill:#e5e5e5;fill-opacity:1;stroke:none;stroke-width:.264054;stroke-dasharray:none;stroke-opacity:1" transform="translate(.529 .529)"/>
  </g>
  <g style="fill:#000;fill-opacity:0">
    <path d="M73.134.218a.566.566 0 0 0-.414.174.566.566 0 0 0-.174.414V14.88c0 .174.058.32.174.435l.004.003 4.397 4.397a.608.608 0 0 0 .413.153h4.488c.16 0 .298-.058.414-.174a.565.565 0 0 0 .174-.414v-4.177a.597.597 0 0 0 .13.19l.007.006 4.395 4.395a.565.565 0 0 0 .414.174h4.487c.16 0 .298-.058.414-.174a.566.566 0 0 0 .175-.414V5.207a.566.566 0 0 0-.175-.414l-.007-.007L88.065.402l-.008-.01s0 0 0 0a.566.566 0 0 0-.415-.174h-4.487a.566.566 0 0 0-.414.174.565.565 0 0 0-.174.414v4.18a.595.595 0 0 0-.131-.193l-4.4-4.4h0l-.004-.005v0a.565.565 0 0 0-.41-.17Z" style="fill:none;fill-opacity:1;stroke:#000;stroke-width:1.05833;stroke-linecap:square;stroke-linejoin:bevel;stroke-dasharray:none;stroke-opacity:1;paint-order:stroke fill markers" transform="translate(.529 .529)"/>
    <path d="M73.135.218a.566.566 0 0 0-.414.174.566.566 0 0 0-.175.414V14.88c0 .171.057.314.17.43l.005.005.002.002 4.398 4.398a.608.608 0 0 0 .414.153h4.487c.16 0 .298-.058.414-.174a.565.565 0 0 0 .174-.414V15.1c.028.067.07.13.126.186l.006.005c0 .002.002.003.003.004l4.396 4.397a.565.565 0 0 0 .414.174h4.488c.16 0 .298-.058.414-.174a.566.566 0 0 0 .175-.414V5.207a.566.566 0 0 0-.175-.414l-.007-.006L88.065.402l-.008-.01a.566.566 0 0 0-.414-.174h-4.487a.566.566 0 0 0-.414.175.565.565 0 0 0-.174.414v4.18a.595.595 0 0 0-.132-.194l-4.4-4.4-.004-.005a.565.565 0 0 0-.41-.17Zm4.977.265zM88.23 14.89zm-10.04.137c-.007.025-.014.05-.024.075.01-.024.017-.05.024-.075z" style="fill:#d92d78;fill-opacity:1;stroke:none;stroke-width:.117121;stroke-linecap:square;stroke-dasharray:none;stroke-opacity:1;paint-order:stroke fill markers" transform="translate(.529 .529)"/>
    <path d="M73.134.218a.566.566 0 0 0-.414.174.566.566 0 0 0-.174.414V14.88c0 .174.058.32.174.435a.608.608 0 0 0 .414.153h4.488c.16 0 .298-.058.414-.174a.565.565 0 0 0 .174-.414v-4.64h4.357v4.64c0 .16.058.297.174.414a.565.565 0 0 0 .414.174h4.487c.16 0 .298-.058.414-.174a.566.566 0 0 0 .175-.414V.806a.566.566 0 0 0-.175-.414.566.566 0 0 0-.414-.174h-4.487a.566.566 0 0 0-.414.174.565.565 0 0 0-.174.414v4.465H78.21V.806a.566.566 0 0 0-.174-.414.566.566 0 0 0-.414-.174Z" style="font-weight:900;font-size:21.7847px;font-family:Sans;-inkscape-font-specification:&quot;Sans, Heavy&quot;;letter-spacing:-.529167px;fill:#e5e5e5;fill-opacity:1;stroke:none;stroke-width:.264054;stroke-dasharray:none;stroke-opacity:1" transform="translate(.529 .529)"/>
  </g>
</svg>