<svg class="logo-svg"
  xmlns="http://www.w3.org/2000/svg" xml:space="preserve" viewBox="0 0 136.601 53.364">
  <g class="row">
    <g class="logo-letter-animated placeholder">
      <path d="M0 0z"/>
    </g>
    <g class="logo-letter-animated has-global-animation-play-state">
      <path d="M57.755 173.793c-2.207 0-3.972.465-5.293 1.394-1.322.915-1.983 2.12-1.983 3.617 0 .153.008.302.021.447v.004a4.289 4.289 0 0 0 .056.389l.005.029a3.916 3.916 0 0 0 .093.376l.004.013a3.6 3.6 0 0 0 .504 1.032l.008.012c.075.106.157.208.245.308l.008.01c.087.098.179.192.277.284l2.65 2.65H50.5c-.333 0-.5.16-.5.48 0 .121.008.24.02.358l.005.063a3.437 3.437 0 0 0 .158.703l.002.006.007.023a3.408 3.408 0 0 0 .155.37c.053.107.11.213.174.316l.013.02c.064.103.134.203.21.302l.016.022c.087.11.181.219.283.325l.003.004c.093.098.19.194.296.288l3.992 3.992c.29.327.646.634 1.07.92 1.351.886 3.239 1.329 5.664 1.329 2.426 0 4.372-.465 5.839-1.395 1.466-.93 2.2-2.142 2.2-3.638 0-1.313-.392-2.335-1.176-3.067l-2.596-2.597h2.727c.16 0 .282-.043.37-.13a.436.436 0 0 0 .152-.349c0-.785-.366-1.54-1.094-2.263h.002l-4.406-4.405v.002a7.326 7.326 0 0 0-.95-.784c-1.365-.973-3.159-1.46-5.38-1.46zm6.986 3.05.021.034zm.275.556.021.057zm.144.575zm-8.685.309zm-.06.662zm5.746 1.193zm-10.066 1.895.035.025zm.225.157.033.02a3.637 3.637 0 0 1-.033-.02zm.23.142.047.028zm.395.213c.092.046.189.089.286.131-.097-.043-.195-.085-.286-.13zm.63.273zm.609.21c.084.027.168.053.255.078-.087-.025-.17-.051-.255-.077zm.683.187c.083.02.164.041.25.06-.086-.018-.167-.04-.25-.06zm.746.157c.083.015.163.032.248.046-.085-.014-.165-.03-.248-.046zm3.217.498zm.93 1.005zm-8.139 2.994.07.054z" style="fill:none;fill-opacity:1;stroke:#000;stroke-linejoin:bevel;stroke-dasharray:none;stroke-opacity:1" transform="translate(-27.589 -168.293)"/>
      <path d="M57.755 173.793c-2.207 0-3.972.465-5.294 1.394-1.321.915-1.982 2.12-1.982 3.617 0 1.182.408 2.15 1.221 2.903l2.65 2.651H50.5c-.333 0-.5.16-.5.48 0 1.069.447 2.002 1.341 2.799h.001l3.992 3.992c.29.327.646.634 1.07.92 1.35.886 3.239 1.33 5.664 1.33s4.372-.466 5.838-1.395c1.467-.93 2.2-2.142 2.2-3.638 0-1.313-.391-2.336-1.175-3.067l-2.597-2.597h2.727c.16 0 .283-.043.37-.13a.436.436 0 0 0 .153-.35c0-.785-.366-1.539-1.095-2.262h.002l-4.405-4.406v.002a7.327 7.327 0 0 0-.95-.784c-1.365-.973-3.159-1.459-5.38-1.459zm6.986 3.05.02.034zm.163.295c.006.01.01.021.015.032zm.113.264.018.049c-.005-.017-.012-.033-.018-.05zm.143.572zm-8.688.311zm-4.378 3.747.038.028zm.229.159.027.018zm.24.149.028.016zm.39.209c.088.043.181.084.274.126a8.754 8.754 0 0 1-.275-.126zm.622.27zm.609.21c.084.026.167.052.254.077-.087-.025-.17-.051-.254-.077zm.689.187c.08.02.159.04.242.059-.083-.019-.162-.04-.242-.059zm.736.155c.085.016.167.033.254.047-.087-.014-.169-.031-.254-.047zm3.22.499zm.898.38zm.152.253zm-.021.243zm-.776.395zm-7.462 2.727.073.057z" style="fill:#db2777;fill-opacity:1;" transform="translate(-27.589 -168.293)"/>
      <path d="M57.755 173.793c-2.207 0-3.972.465-5.294 1.394-1.321.915-1.982 2.12-1.982 3.617 0 2.657 2.055 4.233 6.165 4.726 1.293.146 2.157.298 2.593.458.435.145.653.349.653.61 0 .421-.69.632-2.07.632-1.001 0-1.706-.196-2.113-.589-.189-.188-.435-.283-.74-.283H50.5c-.334 0-.501.16-.501.48 0 1.307.668 2.41 2.004 3.311 1.35.886 3.238 1.329 5.664 1.329 2.425 0 4.371-.465 5.838-1.394 1.467-.93 2.2-2.143 2.2-3.638 0-1.496-.508-2.615-1.524-3.355-1.003-.755-2.694-1.271-5.076-1.547-1.133-.13-1.888-.254-2.266-.37-.377-.131-.566-.305-.566-.523 0-.407.486-.61 1.46-.61.696 0 1.22.16 1.568.48a.961.961 0 0 0 .675.26h4.684c.16 0 .283-.043.37-.13a.436.436 0 0 0 .153-.349c0-1.074-.683-2.091-2.048-3.05-1.365-.973-3.159-1.459-5.38-1.459z" style="fill:#e5e5e5;fill-opacity:1;" transform="translate(-27.589 -168.293)"/>
    </g>
    <g class="logo-letter-animated has-global-animation-play-state">
      <path d="M71.875 174.01c-.523 0-.85.24-.98.72l-4.75 13.92a.665.665 0 0 0-.021.197c0 .085.042.178.126.278l.004.005.002.002 4.398 4.398a.52.52 0 0 0 .348.13h4.118c.464 0 .791-.246.98-.74l.545-1.525h4.154l2.014 2.014v-.004c.177.168.4.255.672.255h4.118c.13 0 .239-.043.326-.13.102-.102.153-.196.153-.283a.658.658 0 0 0-.022-.197l-4.75-13.92a.984.984 0 0 0-.28-.484h.005l-4.35-4.35-.017-.016-.038-.038v.005a.832.832 0 0 0-.295-.172l-.011-.004a1.09 1.09 0 0 0-.167-.04l-.02-.004a1.496 1.496 0 0 0-.206-.015zm-5.625 15.115h-.001l.002.002zm12.541-14.681zm-.609 14.249zm.118.185zm.102.116zm.117.099zm.125.073zm.135.051zm.15.032zm-8.275 3.397.021.022-.021.064z" style="fill:none;fill-opacity:1;stroke:#000;stroke-linejoin:bevel;stroke-dasharray:none;stroke-opacity:1" transform="translate(-26.695 -168.293)"/>
      <path d="M71.875 174.01c-.523 0-.85.24-.98.72l-4.75 13.92a.665.665 0 0 0-.02.196c0 .088.042.182.13.284l4.398 4.4a.52.52 0 0 0 .35.13h4.116c.465 0 .792-.247.98-.74l.545-1.525H80.8l2.014 2.013v-.004c.177.169.4.256.672.256h4.117c.131 0 .24-.043.327-.13.102-.102.152-.197.152-.284a.658.658 0 0 0-.021-.196l-4.75-13.92a.984.984 0 0 0-.28-.484h.005l-4.35-4.35-.017-.017-.038-.038v.005c-.17-.155-.402-.235-.7-.235zm6.916.434c.013.022.025.045.037.069l-.037-.07zm-3.888 3.772 1.547 4.53h-.001zm2.657 8.778.545 1.525zm.932 2.08zm-12.243.05.005.005-.004-.005zm4.404 3.522.022.022-.022.064z" style="fill:#db2777;fill-opacity:1;" transform="translate(-26.695 -168.293)"/>
      <path d="M71.875 174.01c-.523 0-.85.24-.98.72l-4.75 13.92a.665.665 0 0 0-.021.196c0 .087.043.182.13.284a.52.52 0 0 0 .349.13h4.117c.465 0 .791-.247.98-.74l.545-1.526h5.315l.545 1.525c.189.494.515.74.98.74h4.118c.13 0 .24-.042.326-.13.102-.101.153-.196.153-.283a.658.658 0 0 0-.022-.196l-4.749-13.92c-.13-.48-.457-.72-.98-.72zm3.028 4.205 1.546 4.531h-3.093z" style="fill:#e5e5e5;fill-opacity:1;" transform="translate(-26.695 -168.293)"/>
    </g>
    <g class="logo-letter-animated has-global-animation-play-state">
      <path d="M86.137 174.01a.566.566 0 0 0-.414.175.565.565 0 0 0-.174.414v14.073c0 .16.058.298.174.414.016.015.032.027.049.04-.016-.012-.031-.023-.046-.037l4.397 4.398a.565.565 0 0 0 .414.174h4.706c.16 0 .298-.058.414-.174a.565.565 0 0 0 .174-.414v-3.619l3.959 3.96v-.005c.175.166.408.252.703.252h4.945c.13 0 .24-.043.327-.13.101-.102.153-.204.153-.306a.542.542 0 0 0-.044-.24l-2.68-5.01c1.525-.886 2.288-2.316 2.288-4.291 0-1.4-.431-2.546-1.29-3.44h.002l-.038-.039-.02-.02-4.347-4.346v.003a5 5 0 0 0-.45-.415c-1.162-.944-2.738-1.416-4.728-1.416zm14.211 2.542.009.013zm.222.39.013.028-.013-.027zm.325.86.006.019-.006-.02zm-6.74.26zm6.839.188.009.056a33.438 33.438 0 0 0-.01-.056zm.064.491.006.078zm.023.542zm-.016.46zm-6.17.324zm6.14.016zm-.047.318zm-.063.311zm-.08.306c-.016.051-.034.102-.051.152.017-.05.035-.1.05-.152zm-.094.28zm-.29.624-.08.14zm-.154.252zm-.162.228zm-.18.222zm-.202.214zm-.205.19a4.6 4.6 0 0 1-.763.547 5.056 5.056 0 0 0 .763-.546zm-8.127 1.374h1.83zm-.174 4.684zm-5.236.163a.634.634 0 0 0 .116.011h4.706-4.706a.593.593 0 0 1-.116-.01z" style="fill:none;fill-opacity:1;stroke:#000;stroke-linejoin:bevel;stroke-dasharray:none;stroke-opacity:1" transform="translate(-27.363 -168.293)"/>
      <path d="M86.137 174.01a.566.566 0 0 0-.414.175.565.565 0 0 0-.174.414v14.073c0 .16.058.298.174.414a.64.64 0 0 0 .003.003l4.397 4.397a.565.565 0 0 0 .414.175h4.706c.16 0 .297-.058.414-.175a.565.565 0 0 0 .174-.413v-3.619l3.959 3.96v-.005c.175.166.408.252.703.252h4.945c.13 0 .24-.043.327-.13.101-.102.152-.204.152-.306a.542.542 0 0 0-.043-.24l-2.68-5.01c1.525-.886 2.287-2.316 2.287-4.291 0-1.4-.43-2.546-1.29-3.44h.003l-.038-.039-.02-.02-4.347-4.346v.003a5 5 0 0 0-.45-.415c-1.162-.944-2.738-1.416-4.727-1.416zm14.433 2.933.013.027zm.322.847.01.037zm-6.738.273zm6.839.183.012.067zm.065.495.006.084zm.024.542zm-.036.715zm-6.151.07zm-.148.135zm5.897 1.36zm-.643 1.022zm-.67.632zm-7.9 1.185h1.83zm10.053 4.216zm-10.064.17a.57.57 0 0 1-.163.298.567.567 0 0 1-.415.174h-4.705 4.706c.16 0 .298-.058.414-.174a.57.57 0 0 0 .163-.298zm10.088.113zm-6.174.053zm.204.17zm5.827.005v.001a.443.443 0 0 1-.327.13h-4.945 4.945c.13 0 .24-.043.327-.13z" style="fill:#db2777;fill-opacity:1;" transform="translate(-27.363 -168.293)"/>
      <path d="M86.137 174.01a.566.566 0 0 0-.414.175.565.565 0 0 0-.174.414v14.073c0 .16.058.297.174.414a.565.565 0 0 0 .414.174h4.706c.16 0 .297-.058.414-.174a.565.565 0 0 0 .174-.414v-4.27h1.83l1.917 4.314c.174.363.48.544.915.544h4.945a.44.44 0 0 0 .326-.13c.102-.102.153-.204.153-.306a.542.542 0 0 0-.043-.24l-2.68-5.01c1.525-.886 2.287-2.316 2.287-4.291 0-1.627-.58-2.913-1.742-3.857-1.162-.944-2.738-1.415-4.728-1.415zm5.294 4.052h2.723c.334 0 .58.124.74.371.175.232.262.508.262.828 0 .32-.087.588-.261.806-.175.203-.421.305-.74.305H91.43Z" style="fill:#e5e5e5;fill-opacity:1;" transform="translate(-27.363 -168.293)"/>
    </g>
    <g class="logo-letter-animated has-global-animation-play-state">
      <path d="M64.965.217h-6.056c-.523 0-.85.24-.98.72l-4.75 13.92a.665.665 0 0 0-.021.197c0 .085.042.178.126.278l.004.005 4.4 4.4a.52.52 0 0 0 .348.13h4.118c.464 0 .791-.247.98-.74l.545-1.525h4.154l2.014 2.014v-.005c.177.169.4.256.672.256h4.117c.131 0 .24-.043.327-.13.102-.102.153-.197.153-.284a.658.658 0 0 0-.022-.196l-4.75-13.92a.984.984 0 0 0-.28-.484h.006L65.719.503a.652.652 0 0 0-.055-.05.797.797 0 0 0-.13-.096l-.01-.005a.875.875 0 0 0-.14-.065l-.009-.004a1.057 1.057 0 0 0-.157-.041c-.019-.003-.036-.008-.055-.01a1.462 1.462 0 0 0-.148-.011h-.005c-.015-.002-.03-.004-.045-.004Zm.7.236.045.04-.046-.045zm.16.198zm-8.137 18.202.022.022-.022.064z" style="fill:none;fill-opacity:1;stroke:#000;stroke-linejoin:bevel;stroke-dasharray:none;stroke-opacity:1" transform="translate(22.288 5.5)"/>
      <path d="M58.909.218c-.523 0-.85.24-.98.718l-4.75 13.921a.665.665 0 0 0-.021.196c0 .086.042.179.126.278h-.001l.005.005 4.4 4.4a.52.52 0 0 0 .349.13h4.117c.464 0 .791-.246.98-.74l.545-1.525h4.154l2.014 2.014v-.004c.178.169.4.256.672.256h4.118c.13 0 .24-.044.326-.13.102-.102.153-.197.153-.284a.658.658 0 0 0-.022-.196l-4.75-13.92a.984.984 0 0 0-.28-.485h.006L65.718.502 65.717.5 65.71.494l-.046-.046v.005c-.171-.155-.403-.236-.7-.236Zm6.916.431zm-7.09 14.077zm11.96.131zm-13.007 3.996.022.022-.022.064z" style="fill:#db2777;fill-opacity:1;" transform="translate(22.288 5.5)"/>
      <path d="M58.909.218c-.523 0-.85.24-.98.718l-4.75 13.92a.665.665 0 0 0-.021.197c0 .087.043.182.13.284a.52.52 0 0 0 .349.13h4.117c.465 0 .791-.247.98-.74l.545-1.526h5.315l.545 1.525c.189.494.515.74.98.74h4.118c.13 0 .24-.042.326-.13.102-.101.153-.196.153-.283a.658.658 0 0 0-.022-.196L65.945.937c-.13-.48-.457-.72-.98-.72zm3.027 4.204 1.547 4.531H60.39Z" style="fill:#e5e5e5;fill-opacity:1;" transform="translate(22.288 5.5)"/>
    </g>
    <g class="logo-letter-animated has-global-animation-play-state">
      <path d="M73.134.218a.566.566 0 0 0-.414.174.566.566 0 0 0-.174.414V14.88c0 .174.058.32.174.435l.004.003 4.397 4.397a.608.608 0 0 0 .413.153h4.488c.16 0 .298-.058.414-.174a.565.565 0 0 0 .174-.414v-4.177a.597.597 0 0 0 .13.19l.007.006 4.395 4.395a.565.565 0 0 0 .414.174h4.487c.16 0 .298-.058.414-.174a.566.566 0 0 0 .175-.414V5.207a.566.566 0 0 0-.175-.414l-.007-.007L88.065.402l-.008-.01s0 0 0 0a.566.566 0 0 0-.415-.174h-4.487a.566.566 0 0 0-.414.174.565.565 0 0 0-.174.414v4.18a.595.595 0 0 0-.131-.193l-4.4-4.4v0l-.004-.005v0a.565.565 0 0 0-.41-.17z" style="fill:none;fill-opacity:1;stroke:#000;stroke-linecap:square;stroke-linejoin:bevel;stroke-dasharray:none;stroke-opacity:1;paint-order:stroke fill markers" transform="translate(21.558 5.5)"/>
      <path d="M73.135.218a.566.566 0 0 0-.414.174.566.566 0 0 0-.175.414V14.88c0 .171.057.314.17.43l.005.005.002.002 4.398 4.398a.608.608 0 0 0 .414.153h4.487c.16 0 .298-.058.414-.174a.565.565 0 0 0 .174-.414V15.1c.028.067.07.13.126.186l.006.005c0 .002.002.003.003.004l4.396 4.397a.565.565 0 0 0 .414.174h4.488c.16 0 .298-.058.414-.174a.566.566 0 0 0 .175-.414V5.207a.566.566 0 0 0-.175-.414l-.007-.006L88.065.402l-.008-.01a.566.566 0 0 0-.414-.174h-4.487a.566.566 0 0 0-.414.175.565.565 0 0 0-.174.414v4.18a.595.595 0 0 0-.132-.194l-4.4-4.4-.004-.005a.565.565 0 0 0-.41-.17zm4.977.265zM88.23 14.89Zm-10.04.137a.724.724 0 0 1-.024.075c.01-.024.017-.05.024-.075z" style="fill:#db2777;fill-opacity:1;stroke:none;stroke-linecap:square;stroke-dasharray:none;stroke-opacity:1;paint-order:stroke fill markers" transform="translate(21.558 5.5)"/>
      <path d="M73.134.218a.566.566 0 0 0-.414.174.566.566 0 0 0-.174.414V14.88c0 .174.058.32.174.435a.608.608 0 0 0 .414.153h4.488c.16 0 .298-.058.414-.174a.565.565 0 0 0 .174-.414v-4.64h4.357v4.64c0 .16.058.297.174.414a.565.565 0 0 0 .414.174h4.487c.16 0 .298-.058.414-.174a.566.566 0 0 0 .175-.414V.806a.566.566 0 0 0-.175-.414.566.566 0 0 0-.414-.174h-4.487a.566.566 0 0 0-.414.174.565.565 0 0 0-.174.414v4.465H78.21V.806a.566.566 0 0 0-.174-.414.566.566 0 0 0-.414-.174Z" style="fill:#e5e5e5;fill-opacity:1;" transform="translate(21.558 5.5)"/>
    </g>
    <g class="logo-letter-animated placeholder">
      <path d="M0 0z"/>
    </g>
  </g>
  <g class="row">
    <g class="logo-letter-animated has-global-animation-play-state">
      <path d="M96.106 22.703a.552.552 0 0 0-.406.17.559.559 0 0 0-.172.408v3.238a.559.559 0 0 0 .246.47c.017.022.031.043.051.063l.002.002.002.004 4.332 4.332a.557.557 0 0 0 .408.172h3.368v.364c0 .586-.202 1.037-.602 1.35-.386.316-.916.47-1.588.47a3.23 3.23 0 0 1-.7-.07l-1.427-1.43c-.015-.013-.034-.021-.05-.033a.482.482 0 0 0-.417-.223h-4.847a.472.472 0 0 0-.344.148.438.438 0 0 0-.129.323c0 1.202.556 2.33 1.666 3.386.022.022.04.043.063.065l4.218 4.22.03.03.087.086v-.002c.112.108.227.217.35.324.63.543 1.473.987 2.531 1.33 1.058.33 2.238.494 3.54.494 2.387 0 4.296-.53 5.726-1.588 1.43-1.072 2.144-2.695 2.144-4.87v-8.192a.556.556 0 0 0-.167-.402l-4.336-4.338a.673.673 0 0 0-.067-.055.557.557 0 0 0-.47-.246zm4.055 4.527h.148a.593.593 0 0 0-.148.106z" style="fill:none;stroke:#000;stroke-width:.1.5;stroke-opacity:1" transform="translate(-88.333 4.665)"/>
      <path d="M96.237 22.833a.557.557 0 0 0-.407.17.557.557 0 0 0-.172.409v3.239c0 .155.057.289.168.402h-.001l.005.005-.003-.004.003.004 4.332 4.332c.114.115.25.172.407.172h3.497v-4.333 4.826c0 .587-.2 1.037-.6 1.352-.387.314-.916.47-1.588.47-.131 0-.256-.006-.376-.018a2.893 2.893 0 0 1-.313-.05h-.008l-1.561-1.561a.461.461 0 0 0-.215-.113.549.549 0 0 0-.123-.016h-4.847a.473.473 0 0 0-.344.15.437.437 0 0 0-.128.323 3.916 3.916 0 0 0 .406 1.725c.266.549.664 1.08 1.192 1.594h-.002l4.22 4.22.03.03.088.088v-.002c.111.108.227.216.35.323.63.543 1.473.987 2.531 1.33 1.058.329 2.238.494 3.539.494 2.388 0 4.297-.53 5.727-1.588 1.43-1.072 2.145-2.695 2.145-4.87v-8.192a.556.556 0 0 0-.168-.403l-4.336-4.337a.557.557 0 0 0-.407-.172zm3.925 4.397h.147a.595.595 0 0 0-.147.106zm-.335 5.384zm.094.237zm.112.204zm.137.184zm.157.16zm-6.269.032zm6.45.105zm.209.117zm.219.088zm-6.753.128.013.036z" style="fill:#db2777;fill-opacity:1;stroke:none;stroke-width:.1.5;stroke-opacity:1" transform="translate(-88.333 4.665)"/>
      <path d="M96.107 22.702a.557.557 0 0 0-.407.172.557.557 0 0 0-.172.407v3.24c0 .157.057.293.172.407.114.114.25.17.407.17h7.83v4.827c0 .587-.201 1.037-.602 1.352-.386.314-.915.47-1.587.47-1.1 0-1.787-.427-2.059-1.285-.1-.315-.279-.473-.536-.473h-4.847a.473.473 0 0 0-.344.15.437.437 0 0 0-.129.323c0 1.3.651 2.516 1.952 3.646.63.543 1.473.986 2.531 1.33 1.059.328 2.238.493 3.54.493 2.387 0 4.296-.53 5.726-1.587 1.43-1.073 2.145-2.695 2.145-4.87v-8.193a.557.557 0 0 0-.172-.407.557.557 0 0 0-.407-.172z" style="fill:#e5e5e5;fill-opacity:1;stroke:none;stroke-width:.1.5;stroke-opacity:1" transform="translate(-88.333 4.665)"/>
    </g>
    <g class="logo-letter-animated has-global-animation-play-state">
      <path d="M118.388 22.02c-.515 0-.838.236-.967.708l-4.676 13.705a.653.653 0 0 0-.021.193c0 .086.043.18.129.28a.577.577 0 0 0 .082.058c.016.024.028.046.049.07a.536.536 0 0 0 0 .002l4.332 4.332a.51.51 0 0 0 .341.13h4.055c.458 0 .78-.245.965-.731l.537-1.5h4.09l1.982 1.982v-.004c.175.166.395.25.662.25h4.055a.432.432 0 0 0 .32-.127c.1-.1.15-.193.15-.279a.646.646 0 0 0-.02-.193l-4.676-13.705a.97.97 0 0 0-.278-.477h.008l-4.287-4.285-.006-.008-.045-.045v.006c-.01-.009-.021-.015-.03-.023-.172-.225-.435-.338-.79-.338zm11.603 15.014v.002a.435.435 0 0 1 0-.002zm-12.675 3.463.021.022-.021.064z" style="fill:none;stroke:#000;stroke-width:.1.5;stroke-opacity:1" transform="translate(-89.958 5.562)"/>
      <path d="M118.518 22.15c-.515 0-.837.236-.965.708l-4.676 13.706a.646.646 0 0 0-.022.193c0 .085.043.178.129.279l4.331 4.332c.1.086.215.129.344.129h4.053c.458 0 .78-.243.966-.73l.536-1.5h4.09l1.983 1.982v-.004a.922.922 0 0 0 .662.251h4.054a.436.436 0 0 0 .321-.128c.1-.1.15-.193.15-.279a.65.65 0 0 0-.02-.193l-4.677-13.706a.969.969 0 0 0-.276-.476h.006l-4.286-4.286-.006-.006-.046-.045v.005c-.168-.153-.396-.232-.689-.232zm-5.534 14.886-.004-.004h-.001zm12.341-14.463c.014.023.027.048.04.073-.013-.025-.026-.05-.04-.073zm4.668 14.463zm-12.678 3.462.022.022-.022.063z" style="fill:#db2777;fill-opacity:1;stroke:none;stroke-width:.1.5;stroke-opacity:1" transform="translate(-89.958 5.562)"/>
      <path d="M118.388 22.02c-.515 0-.837.236-.966.708l-4.675 13.706a.646.646 0 0 0-.022.193c0 .086.043.178.129.279.1.085.214.128.343.128h4.053c.458 0 .78-.243.966-.729l.536-1.501h5.233l.537 1.501c.186.486.507.73.965.73h4.054a.436.436 0 0 0 .321-.13c.1-.1.15-.192.15-.278a.646.646 0 0 0-.02-.193l-4.677-13.706c-.128-.472-.45-.708-.965-.708zm2.98 4.14 1.524 4.46h-3.046z" style="fill:#e5e5e5;fill-opacity:1;stroke:none;stroke-width:.1.5;stroke-opacity:1" transform="translate(-89.958 5.562)"/>
    </g>
    <g class="logo-letter-animated has-global-animation-play-state">
      <path d="M138.187 21.806c-3.217 0-5.512.928-6.885 2.787-.73 1-1.094 2.224-1.094 3.668v2.531c0 1.444.365 2.667 1.094 3.668a6.4 6.4 0 0 0 .707.803l.053.057 4.334 4.333a6.227 6.227 0 0 0 2.199 1.415c1.172.429 2.467.642 3.883.642 1.415 0 2.643-.163 3.687-.492 1.044-.343 1.883-.787 2.512-1.33 1.258-1.101 1.887-2.317 1.887-3.647a.408.408 0 0 0-.15-.322l-3.712-3.71h3.39a.438.438 0 0 0 .321-.13c.1-.1.15-.213.15-.342 0-1.327-.627-2.542-1.882-3.642l-3.637-3.637a6.927 6.927 0 0 0-.347-.37 7.596 7.596 0 0 0-.483-.46c-.629-.543-1.466-.98-2.51-1.308-1.043-.344-2.216-.514-3.517-.514z" style="fill:none;stroke:#000;stroke-width:.1.5;stroke-opacity:1" transform="translate(-88.69 5.562)"/>
      <path d="M138.317 21.936c-3.217 0-5.512.929-6.885 2.788-.729 1-1.093 2.223-1.093 3.668v2.53c0 1.445.364 2.667 1.093 3.668.195.263.405.505.63.73h-.003l4.337 4.336v-.003a6.226 6.226 0 0 0 2.2 1.414c1.172.43 2.466.644 3.882.644s2.645-.165 3.689-.494c1.044-.343 1.88-.786 2.51-1.33 1.258-1.1 1.887-2.316 1.887-3.646a.407.407 0 0 0-.15-.322l-3.711-3.71h3.389a.436.436 0 0 0 .322-.129c.1-.1.15-.214.15-.343 0-1.328-.628-2.542-1.882-3.641l-3.638-3.638a7.227 7.227 0 0 0-.7-.7 5.461 5.461 0 0 0-.815-.577 6.897 6.897 0 0 0-.478-.252 8.99 8.99 0 0 0-1.217-.479c-1.044-.343-2.216-.515-3.517-.515zm7.24 3.208.013.022zm.369.714.014.033zm-7.21.28zm.38.059zm6.964.04.01.034-.01-.033zm.091.366.008.036zm-6.112.185zm6.17.196.006.063zm-5.082 4.453h4.633zm4.886.085zm-5.497.241zm-.16.254a2.41 2.41 0 0 1-.001 0zm-3.783.583zm.458.331zm2.368.096zm-1.575.142zm-5.36 2.515zm.295.234zm.34.233zm.425.246zm.364.18z" style="fill:#db2777;fill-opacity:1;stroke:none;stroke-width:.1.5;stroke-opacity:1" transform="translate(-88.69 5.562)"/>
      <path d="M138.188 21.806c-3.218 0-5.513.929-6.885 2.788-.73 1-1.094 2.223-1.094 3.668v2.53c0 1.445.364 2.667 1.094 3.668a6.205 6.205 0 0 0 2.83 2.145c1.173.43 2.467.644 3.883.644s2.645-.165 3.689-.494c1.044-.343 1.88-.786 2.51-1.33 1.258-1.1 1.887-2.316 1.887-3.646a.407.407 0 0 0-.15-.322.406.406 0 0 0-.322-.15h-4.633c-.314 0-.572.194-.772.58-.186.386-.422.679-.707.879-.286.2-.752.3-1.395.3-.63 0-1.144-.157-1.544-.471-.386-.315-.58-.766-.58-1.352v-3.432c0-.586.194-1.036.58-1.351.4-.315.915-.472 1.544-.472.643 0 1.109.1 1.395.3.285.2.521.494.707.88.2.386.458.579.772.579h4.633a.436.436 0 0 0 .322-.129c.1-.1.15-.214.15-.343 0-1.33-.629-2.545-1.887-3.646-.63-.544-1.466-.98-2.51-1.309-1.044-.343-2.216-.514-3.517-.514z" style="fill:#e5e5e5;fill-opacity:1;stroke:none;stroke-width:.1.5;stroke-opacity:1" transform="translate(-88.69 5.562)"/>
    </g>
    <g class="logo-letter-animated has-global-animation-play-state">
      <path d="M155.41 21.216c-1.573 0-2.938.206-4.096.621a5.813 5.813 0 0 0-2.81 2.104c-.716.986-1.073 2.229-1.073 3.73v2.531c0 1.502.357 2.746 1.072 3.733.206.284.433.542.676.779l.033.037 4.332 4.334c.002.002.005.002.006.004a5.82 5.82 0 0 0 2.227 1.41c1.158.415 2.523.623 4.095.623.438 0 .862-.02 1.276-.054l.697.697c.243.357.595.537 1.053.537h4.096c.128 0 .243-.065.343-.193.115-.115.122-.273.022-.473l-1.588-2.145c1.387-1.086 2.08-2.68 2.08-4.783v-2.615c0-1.473-.357-2.703-1.072-3.69a5.938 5.938 0 0 0-.96-1.042h-.001l-3.686-3.686a5.843 5.843 0 0 0-.334-.357 5.816 5.816 0 0 0-2.29-1.48c-1.159-.416-2.526-.622-4.098-.622z" style="fill:none;fill-opacity:1;stroke:#000;stroke-width:.1.5;paint-order:stroke fill markers" transform="translate(-88.225 5.562)"/>
      <path d="M155.54 21.346c-1.572 0-2.938.207-4.096.622a5.808 5.808 0 0 0-2.81 2.102c-.715.987-1.072 2.23-1.072 3.732v2.531c0 1.502.357 2.746 1.072 3.732a6.077 6.077 0 0 0 .579.687l4.332 4.332.005.005a5.82 5.82 0 0 0 2.226 1.411c1.158.415 2.524.622 4.097.622.437 0 .86-.02 1.275-.054l.698.698c.243.357.594.536 1.051.536h4.097c.129 0 .243-.064.343-.193.114-.114.121-.272.021-.472l-1.587-2.145c1.387-1.086 2.08-2.68 2.08-4.783v-2.617c0-1.472-.357-2.702-1.072-3.689a5.933 5.933 0 0 0-.962-1.041h.003l-3.686-3.687a5.814 5.814 0 0 0-.635-.635l-.016-.016v.003a5.884 5.884 0 0 0-1.846-1.059c-1.158-.414-2.524-.622-4.096-.622zm-6.329 2.038zm7.515 2.382c.028.013.058.025.085.04-.027-.015-.057-.027-.085-.04zm.086.04zm.831.965zm.066.317c.012.092.02.186.02.285v3.39c0 .035-.004.068-.006.102.001-.034.004-.068.004-.103v-3.389c0-.1-.008-.194-.018-.285zm5.81 3.288zm-.014.485zm-5.785.094-.011.096c.004-.032.009-.063.011-.096zm-4.358.028c.002.025.006.05.009.074-.004-.025-.008-.049-.01-.074zm4.333.167c-.005.03-.012.058-.019.087.007-.029.014-.057.019-.087zm-4.31.02.017.084a1.931 1.931 0 0 1-.017-.083zm10.089.089c-.007.07-.014.14-.023.208.009-.068.015-.138.023-.208zm-5.82.068zm-4.228.023.023.076zm4.17.145zm-4.11.032.023.056a1.883 1.883 0 0 1-.023-.056zm9.94.105zm-5.905.026-.04.073zm-3.959.032.027.048zm3.863.124c-.015.02-.029.042-.045.062.016-.02.03-.041.045-.062zm-3.766.03.025.035c-.01-.01-.016-.023-.025-.035zm3.644.121c-.012.014-.022.028-.035.04.012-.012.023-.026.035-.04zm6.061.01a4.488 4.488 0 0 1-.035.167c.013-.055.024-.111.035-.167zm-6.237.16zm6.164.16zm-6.658.127zm-1.999.067.117.03zm1.602.052zm-.366.05zm7.328.023zm-.107.308zm-.121.289zm-.14.288zm-.147.262c-.03.049-.06.096-.092.144.031-.048.063-.095.092-.144zm-.17.265c-.034.048-.07.095-.105.142l.104-.142zm-.18.244c-.037.047-.077.093-.115.139.038-.046.078-.092.115-.139zm-.202.241c-.03.034-.063.067-.095.1.032-.033.065-.066.095-.1zm-12.534.597zm.314.25zm.324.223zm.451.256zm.37.176a6.364 6.364 0 0 0 .388.155 6.405 6.405 0 0 1-.388-.155zm.939.33zm.43.113zm.445.096.037.007zm.736.117.11.014zm.883.086.083.005a19.198 19.198 0 0 0-.083-.005zm8.593.702zm.01.134zm-.028.1zm-5.066.16zm.156.059.05.015c-.017-.004-.034-.01-.05-.015zm4.659.024c-.013.006-.026.012-.04.016.014-.004.027-.01.04-.016zm-4.486.015c.017.003.034.007.052.009-.018-.002-.035-.006-.052-.009zm4.418.01z" style="fill:#db2777;fill-opacity:1;stroke:none;stroke-width:.1.5;paint-order:stroke fill markers" transform="translate(-88.225 5.562)"/>
      <path d="M155.41 21.216c-1.572 0-2.938.207-4.096.622a5.808 5.808 0 0 0-2.81 2.102c-.715.987-1.072 2.23-1.072 3.732v2.531c0 1.502.357 2.746 1.072 3.732a5.808 5.808 0 0 0 2.81 2.102c1.158.415 2.524.622 4.097.622.486 0 .958-.021 1.415-.064l.558.707c.243.358.593.537 1.051.537h4.097c.128 0 .243-.064.343-.193.114-.114.121-.272.021-.472l-1.587-2.145c1.387-1.087 2.08-2.681 2.08-4.783v-2.617c0-1.473-.357-2.702-1.072-3.689a5.808 5.808 0 0 0-2.81-2.102c-1.158-.414-2.523-.622-4.096-.622zm0 4.183c.673 0 1.202.164 1.588.493.4.314.6.765.6 1.351v3.39c0 .585-.2 1.043-.6 1.372-.386.314-.915.472-1.587.472-.672 0-1.209-.158-1.61-.472-.385-.315-.578-.765-.578-1.351v-3.432c0-.587.193-1.037.579-1.352.4-.314.937-.471 1.609-.471z" style="fill:#e5e5e5;fill-opacity:1;stroke:none;stroke-width:.1.5;stroke-opacity:1" transform="translate(-88.225 5.562)"/>
    </g>
    <g class="logo-letter-animated has-global-animation-play-state">
      <path d="M166.144 22.02a.557.557 0 0 0-.408.17.557.557 0 0 0-.17.409v8.193c0 1.96.546 3.461 1.642 4.504l.065.066.031.032 4.305 4.302c.161.16.333.31.52.448 1.415 1.044 3.325 1.566 5.728 1.566 2.402 0 4.304-.522 5.705-1.566 1.415-1.044 2.123-2.673 2.123-4.889v-8.193a.556.556 0 0 0-.168-.403l-.004-.006-4.332-4.332c-.021-.02-.044-.037-.067-.054a.646.646 0 0 0-.064-.076.552.552 0 0 0-.406-.17h-4.485a.552.552 0 0 0-.406.17.558.558 0 0 0-.172.408v4.162a.611.611 0 0 0-.08-.102l-4.334-4.334-.004-.004c-.02-.02-.044-.037-.066-.054a.557.557 0 0 0-.47-.246zm15.164.489h.002a.62.62 0 0 1 .043.22v8.194c0 .069-.004.134-.006.201 0-.067.004-.132.004-.201V22.73a.526.526 0 0 0-.043-.22z" style="fill:none;stroke:#000;stroke-width:.1.5;stroke-opacity:1" transform="translate(-88.683 5.562)"/>
      <path d="M166.274 22.15a.557.557 0 0 0-.407.172.557.557 0 0 0-.172.407v8.194c0 1.92.527 3.4 1.578 4.44h-.002l.034.031 4.304 4.306v-.002c.162.159.334.308.52.447 1.416 1.044 3.325 1.566 5.727 1.566 2.403 0 4.304-.522 5.706-1.566 1.415-1.044 2.123-2.674 2.123-4.89V27.06a.556.556 0 0 0-.168-.402h.001l-.005-.005-4.331-4.332a.624.624 0 0 1-.001 0 .557.557 0 0 0-.408-.171h-4.482a.557.557 0 0 0-.408.171.557.557 0 0 0-.172.408v8.536c0 .155-.014.3-.042.436v-4.64a.556.556 0 0 0-.168-.403l-4.333-4.334a.642.642 0 0 1-.003-.003.557.557 0 0 0-.408-.171zm15.036.36a.56.56 0 0 1 .043.22v8.193c0 .068-.003.135-.005.202 0-.067.004-.134.004-.202v-8.194a.562.562 0 0 0-.043-.22zm-9.985.105a.606.606 0 0 1 .012.114v8.537-8.537a.633.633 0 0 0-.011-.114zm4.344 9.087zm-4.267.104zm4.179.185zm5.675.255-.014.092zm-5.964.202c-.055.06-.114.117-.18.169h-.001c-.307.25-.705.399-1.192.45.104-.011.205-.025.301-.045a2.392 2.392 0 0 0 .575-.199 1.847 1.847 0 0 0 .497-.376zm-3.312.215zm.493.258zm1.38.153zm7.16.218-.026.08z" style="fill:#db2777;fill-opacity:1;stroke:none;stroke-width:.1.5;stroke-opacity:1" transform="translate(-88.683 5.562)"/>
      <path d="M166.144 22.02a.557.557 0 0 0-.407.172.557.557 0 0 0-.172.407v8.194c0 2.216.7 3.846 2.102 4.89 1.416 1.044 3.325 1.566 5.727 1.566s4.304-.522 5.705-1.566c1.416-1.044 2.123-2.674 2.123-4.89v-8.194a.557.557 0 0 0-.171-.407.557.557 0 0 0-.408-.172h-4.482a.557.557 0 0 0-.408.172.557.557 0 0 0-.172.407v8.537c0 .586-.2 1.037-.6 1.351-.386.315-.915.472-1.587.472-.672 0-1.208-.157-1.609-.472-.386-.314-.579-.765-.579-1.351v-8.537a.557.557 0 0 0-.172-.407.557.557 0 0 0-.407-.172z" style="fill:#e5e5e5;fill-opacity:1;stroke:none;stroke-width:.1.5;stroke-opacity:1" transform="translate(-88.683 5.562)"/>
    </g>
    <g class="logo-letter-animated has-global-animation-play-state">
      <path d="M183.96 22.03a.554.554 0 0 0-.406.172.554.554 0 0 0-.172.407v13.857a.554.554 0 0 0 .242.465c.019.024.036.05.059.072.017.017.036.03.055.045l4.275 4.277c.114.115.25.172.408.172h13.555a.559.559 0 0 0 .408-.172.559.559 0 0 0 .172-.408v-3.023a.556.556 0 0 0-.168-.403l-1.576-1.576a.596.596 0 0 0 .35-.531v-2.79a.554.554 0 0 0-.172-.405l-1.395-1.395v-.129h2.166a.559.559 0 0 0 .408-.172.554.554 0 0 0 .172-.406v-3.025a.559.559 0 0 0-.172-.409l-4.332-4.332c.022.022.036.048.053.07-.016-.02-.032-.04-.05-.06a.632.632 0 0 0-.071-.058.559.559 0 0 0-.467-.242z" style="fill:none;stroke:#000;stroke-width:.1.5;stroke-opacity:1" transform="translate(-88.582 5.562)"/>
      <path d="M184.091 22.16a.557.557 0 0 0-.407.172.557.557 0 0 0-.172.408v13.856c0 .157.057.293.172.407.017.018.036.031.054.046l-.005-.004 4.28 4.28a.557.557 0 0 0 .408.172h13.556a.557.557 0 0 0 .408-.171.557.557 0 0 0 .171-.408v-3.024a.556.556 0 0 0-.167-.403l-1.576-1.576a.594.594 0 0 0 .177-.123.556.556 0 0 0 .172-.407v-2.79a.557.557 0 0 0-.172-.407l-1.394-1.394v-.128h2.166a.557.557 0 0 0 .408-.172.557.557 0 0 0 .171-.408v-3.024a.557.557 0 0 0-.171-.407l-4.332-4.333c.021.022.034.047.052.07-.016-.02-.031-.041-.05-.06a.557.557 0 0 0-.408-.171zm13.742.157.005.005zm.09.118a.535.535 0 0 1 .03.058c-.01-.02-.019-.04-.03-.058zm-.083 3.737zm-.188.128a.561.561 0 0 1-.22.044h-8.343 8.343a.561.561 0 0 0 .22-.044zm-.992 5.17a.539.539 0 0 1-.407.172h-7.164 7.164a.54.54 0 0 0 .407-.172zm1.394 5.533v.001zm-14.245.095.013.008zm14.058.034a.561.561 0 0 1-.22.043H184.09h13.556a.561.561 0 0 0 .22-.043zm-13.972.007.033.01a.284.284 0 0 1-.033-.01z" style="fill:#db2777;fill-opacity:1;stroke:none;stroke-width:.1.5;stroke-opacity:1" transform="translate(-88.582 5.562)"/>
      <path d="M183.961 22.03a.557.557 0 0 0-.407.172.557.557 0 0 0-.172.408v13.856c0 .157.057.293.172.407.114.115.25.172.407.172h13.556a.557.557 0 0 0 .407-.172.557.557 0 0 0 .172-.407v-3.024a.557.557 0 0 0-.172-.408.557.557 0 0 0-.407-.171h-8.559V31.51h7.165a.556.556 0 0 0 .407-.172.556.556 0 0 0 .172-.407v-2.789a.557.557 0 0 0-.172-.407.556.556 0 0 0-.407-.172h-7.165v-1.35h8.344a.557.557 0 0 0 .408-.172.557.557 0 0 0 .171-.408V22.61a.557.557 0 0 0-.171-.408.557.557 0 0 0-.408-.171z" style="fill:#e5e5e5;fill-opacity:1;stroke:none;stroke-width:.1.5;stroke-opacity:1" transform="translate(-88.582 5.562)"/>
    </g>
    <g class="logo-letter-animated has-global-animation-play-state">
      <path d="M207.1 21.806c-2.173 0-3.91.458-5.212 1.373-1.301.9-1.951 2.088-1.951 3.56 0 1.13.379 2.059 1.133 2.791l.048.05c.045.045.09.09.137.134l.014.014 2.48 2.48h-3.79c-.33 0-.495.156-.495.47 0 .98.384 1.845 1.147 2.593l.013.013.01.01c.087.09.178.179.276.266l.011.012 3.926 3.925a5.52 5.52 0 0 0 1.055.905c1.33.872 3.188 1.308 5.576 1.308 2.388 0 4.304-.458 5.748-1.373s2.166-2.11 2.166-3.582c0-1.293-.385-2.3-1.156-3.02l-2.559-2.556h2.686c.157 0 .28-.043.365-.129.1-.086.15-.199.15-.342 0-.773-.36-1.516-1.078-2.228l-4.308-4.307-.004-.004-.026-.025-.05-.053-.022-.02a7.09 7.09 0 0 0-.992-.828c-1.344-.958-3.11-1.437-5.297-1.437z" style="fill:none;stroke:#000;stroke-width:.1.5;stroke-opacity:1" transform="translate(-88.291 5.562)"/>
      <path d="M207.232 21.936c-2.174 0-3.911.457-5.213 1.372-1.3.901-1.951 2.088-1.951 3.56 0 1.165.4 2.117 1.201 2.86l2.61 2.61h.607c.3 0 .543.093.73.279.25.24.614.407 1.093.498-.479-.09-.844-.257-1.094-.498-.186-.186-.429-.279-.729-.279h-4.397c-.329 0-.494.157-.494.472 0 1.055.443 1.976 1.327 2.762l3.926 3.925c.285.322.636.624 1.053.906 1.33.872 3.189 1.308 5.577 1.308s4.304-.458 5.748-1.373 2.167-2.109 2.167-3.582c0-1.293-.386-2.3-1.158-3.02l-2.557-2.557h2.685c.158 0 .279-.042.365-.128.1-.086.15-.2.15-.343 0-.774-.36-1.516-1.078-2.228h.002l-4.337-4.338v.002l.027.03a7.147 7.147 0 0 0-.963-.801c-1.344-.958-3.11-1.438-5.298-1.438zm6.466 2.456.028.031zm.232.284.02.029c-.006-.01-.012-.02-.02-.03zm.174.256.028.044zm.168.3.01.02zm.106.248.024.066zm.144.57a137 137 0 0 1 .01.068zm-8.547.303zm-.18.226zm.117.43c.093.085.233.16.419.224.279.086.767.176 1.463.27-.697-.094-1.185-.184-1.464-.27a1.192 1.192 0 0 1-.418-.225zm3.497.702zm3.748 1.142zm-10.64 1.71c.08.039.163.076.245.113-.082-.037-.166-.074-.244-.113zm.612.264zm.605.208c.074.022.146.045.221.066-.075-.02-.148-.044-.22-.066zm.685.185c.068.016.134.034.203.049zm.802.166c.042.007.08.016.123.023zm3.073.473zm.4.117zm.512.87c-.164.15-.49.251-.97.305.48-.054.806-.155.97-.305zm-8.005 2.956.05.039z" style="fill:#db2777;fill-opacity:1;stroke:none;stroke-width:.1.5;stroke-opacity:1" transform="translate(-88.291 5.562)"/>
      <path d="M207.101 21.806c-2.173 0-3.91.457-5.212 1.372-1.3.901-1.951 2.088-1.951 3.56 0 2.618 2.023 4.17 6.07 4.655 1.272.143 2.123.293 2.552.45.429.144.643.344.643.601 0 .415-.68.622-2.037.622-.987 0-1.68-.193-2.08-.579-.187-.186-.43-.279-.73-.279h-4.397c-.329 0-.494.157-.494.472 0 1.287.658 2.374 1.974 3.26 1.33.873 3.188 1.309 5.576 1.309 2.388 0 4.305-.458 5.749-1.373s2.166-2.11 2.166-3.582c0-1.473-.5-2.574-1.501-3.303-.987-.744-2.653-1.251-4.998-1.523-1.115-.129-1.859-.25-2.23-.364-.372-.129-.558-.3-.558-.515 0-.4.479-.6 1.437-.6.686 0 1.201.156 1.544.471a.947.947 0 0 0 .665.257h4.611c.158 0 .28-.042.365-.128.1-.086.15-.2.15-.343 0-1.058-.672-2.06-2.016-3.003-1.344-.958-3.11-1.437-5.298-1.437z" style="fill:#e5e5e5;fill-opacity:1;stroke:none;stroke-width:.1.5;stroke-opacity:1" transform="translate(-88.291 5.562)"/>
    </g>
  </g>
</svg>