<?xml version="1.0" encoding="UTF-8" standalone="no"?>
<svg
   xml:space="preserve"
   viewBox="0 0 19.999999 200"
   version="1.1"
   id="svg2"
   sodipodi:docname="ticket-edge-2.svg"
   width="20"
   height="200"
   inkscape:version="1.3.2 (091e20e, 2023-11-25)"
   xmlns:inkscape="http://www.inkscape.org/namespaces/inkscape"
   xmlns:sodipodi="http://sodipodi.sourceforge.net/DTD/sodipodi-0.dtd"
   xmlns="http://www.w3.org/2000/svg"
   xmlns:svg="http://www.w3.org/2000/svg"><defs
     id="defs2" /><sodipodi:namedview
     id="namedview2"
     pagecolor="#ffffff"
     bordercolor="#000000"
     borderopacity="0.25"
     inkscape:showpageshadow="2"
     inkscape:pageopacity="0.0"
     inkscape:pagecheckerboard="0"
     inkscape:deskcolor="#d1d1d1"
     showgrid="false"
     inkscape:zoom="2.6103932"
     inkscape:cx="29.30593"
     inkscape:cy="20.686539"
     inkscape:window-width="1280"
     inkscape:window-height="449"
     inkscape:window-x="0"
     inkscape:window-y="25"
     inkscape:window-maximized="0"
     inkscape:current-layer="svg2" /><path
     d="M 20,0 H -20.985247 V 36.701048 73.404077 110.10513 146.80816 183.50921 200 H 20 V 183.50921 A 9.6349272,10.106548 0 0 1 10.365504,173.40507 9.6349272,10.106548 0 0 1 20,163.29895 V 146.80816 A 9.6349272,10.106548 0 0 1 10.365504,136.70204 9.6349272,10.106548 0 0 1 20,126.59791 V 110.10513 A 9.6349272,10.106548 0 0 1 10.365504,100.00099 9.6349272,10.106548 0 0 1 20,89.894878 V 73.404077 A 9.6349272,10.106548 0 0 1 10.365504,63.297963 9.6349272,10.106548 0 0 1 20,53.19383 V 36.701048 A 9.6349272,10.106548 0 0 1 10.365504,26.596915 9.6349272,10.106548 0 0 1 20,16.4908 Z"
     style="stroke-width:2.4046;stroke-linecap:square;stroke-linejoin:bevel;paint-order:stroke fill markers"
     id="path12" /></svg>
